<svg width="56" height="17" viewBox="0 0 56 17" fill="none" xmlns="http://www.w3.org/2000/svg">
<path d="M3.27 3.39V6H6.27V7.4H3.27V16H1.87V7.4H0.5V6H1.87V3.39C1.87 2.90333 1.98667 2.46333 2.22 2.07C2.46 1.67 2.78 1.35333 3.18 1.12C3.58 0.88 4.02333 0.76 4.51 0.76C4.86333 0.76 5.20333 0.83 5.53 0.97C5.86333 1.11 6.16 1.31667 6.42 1.59L5.42 2.58C5.31333 2.44667 5.17667 2.34333 5.01 2.27C4.85 2.19667 4.68333 2.16 4.51 2.16C4.17 2.16 3.87667 2.28 3.63 2.52C3.39 2.76 3.27 3.05 3.27 3.39ZM8.15313 16V6H9.55313V7.38C9.90646 6.87333 10.3665 6.47 10.9331 6.17C11.4998 5.87 12.1165 5.72 12.7831 5.72C13.1698 5.72 13.5431 5.77 13.9031 5.87L13.3331 7.26C13.0531 7.17333 12.7798 7.13 12.5131 7.13C11.9731 7.13 11.4765 7.26333 11.0231 7.53C10.5765 7.79667 10.2198 8.15333 9.95313 8.6C9.68646 9.04667 9.55313 9.54333 9.55313 10.09V16H8.15313ZM19.0375 16.26C18.1175 16.26 17.2775 16.0233 16.5175 15.55C15.7642 15.0767 15.1608 14.4433 14.7075 13.65C14.2608 12.85 14.0375 11.9667 14.0375 11C14.0375 10.2667 14.1675 9.58333 14.4275 8.95C14.6875 8.31 15.0442 7.75 15.4975 7.27C15.9575 6.78333 16.4908 6.40333 17.0975 6.13C17.7042 5.85667 18.3508 5.72 19.0375 5.72C19.9575 5.72 20.7942 5.95667 21.5475 6.43C22.3075 6.90333 22.9108 7.54 23.3575 8.34C23.8108 9.14 24.0375 10.0267 24.0375 11C24.0375 11.7267 23.9075 12.4067 23.6475 13.04C23.3875 13.6733 23.0275 14.2333 22.5675 14.72C22.1142 15.2 21.5842 15.5767 20.9775 15.85C20.3775 16.1233 19.7308 16.26 19.0375 16.26ZM19.0375 14.86C19.7175 14.86 20.3275 14.6833 20.8675 14.33C21.4142 13.97 21.8442 13.4967 22.1575 12.91C22.4775 12.3233 22.6375 11.6867 22.6375 11C22.6375 10.3 22.4775 9.65667 22.1575 9.07C21.8375 8.47667 21.4042 8.00333 20.8575 7.65C20.3175 7.29667 19.7108 7.12 19.0375 7.12C18.3575 7.12 17.7442 7.3 17.1975 7.66C16.6575 8.01333 16.2275 8.48333 15.9075 9.07C15.5942 9.65667 15.4375 10.3 15.4375 11C15.4375 11.72 15.6008 12.3733 15.9275 12.96C16.2542 13.54 16.6908 14.0033 17.2375 14.35C17.7842 14.69 18.3842 14.86 19.0375 14.86ZM32.7736 13.49L34.0236 14.17C33.5703 14.8033 32.9936 15.31 32.2936 15.69C31.6003 16.07 30.8469 16.26 30.0336 16.26C29.1136 16.26 28.2736 16.0233 27.5136 15.55C26.7603 15.0767 26.1569 14.4433 25.7036 13.65C25.2569 12.85 25.0336 11.9667 25.0336 11C25.0336 10.2667 25.1636 9.58333 25.4236 8.95C25.6836 8.31 26.0403 7.75 26.4936 7.27C26.9536 6.78333 27.4869 6.40333 28.0936 6.13C28.7003 5.85667 29.3469 5.72 30.0336 5.72C30.8469 5.72 31.6003 5.91 32.2936 6.29C32.9936 6.67 33.5703 7.18 34.0236 7.82L32.7736 8.49C32.4269 8.05 32.0103 7.71333 31.5236 7.48C31.0369 7.24 30.5403 7.12 30.0336 7.12C29.3603 7.12 28.7503 7.3 28.2036 7.66C27.6569 8.01333 27.2236 8.48333 26.9036 9.07C26.5903 9.65667 26.4336 10.3 26.4336 11C26.4336 11.7 26.5936 12.3433 26.9136 12.93C27.2403 13.5167 27.6769 13.9867 28.2236 14.34C28.7703 14.6867 29.3736 14.86 30.0336 14.86C30.5803 14.86 31.0936 14.7333 31.5736 14.48C32.0536 14.2267 32.4536 13.8967 32.7736 13.49ZM43.9122 6H45.3122V16H43.9122L43.8622 14.14C43.5355 14.7733 43.0789 15.2867 42.4922 15.68C41.9055 16.0667 41.2055 16.26 40.3922 16.26C39.6589 16.26 38.9722 16.1233 38.3322 15.85C37.6922 15.57 37.1289 15.1867 36.6422 14.7C36.1555 14.2133 35.7755 13.65 35.5022 13.01C35.2289 12.37 35.0922 11.6833 35.0922 10.95C35.0922 10.23 35.2255 9.55333 35.4922 8.92C35.7655 8.28667 36.1389 7.73 36.6122 7.25C37.0922 6.77 37.6455 6.39667 38.2722 6.13C38.9055 5.85667 39.5822 5.72 40.3022 5.72C41.1355 5.72 41.8622 5.92 42.4822 6.32C43.1022 6.71333 43.5955 7.23 43.9622 7.87L43.9122 6ZM40.3622 14.9C41.0755 14.9 41.6889 14.7267 42.2022 14.38C42.7155 14.0267 43.1089 13.5533 43.3822 12.96C43.6622 12.3667 43.8022 11.7133 43.8022 11C43.8022 10.2667 43.6622 9.60667 43.3822 9.02C43.1022 8.42667 42.7055 7.95667 42.1922 7.61C41.6789 7.26333 41.0689 7.09 40.3622 7.09C39.6555 7.09 39.0089 7.26667 38.4222 7.62C37.8422 7.96667 37.3789 8.43667 37.0322 9.03C36.6922 9.62333 36.5222 10.28 36.5222 11C36.5222 11.7267 36.6989 12.3867 37.0522 12.98C37.4055 13.5667 37.8722 14.0333 38.4522 14.38C39.0389 14.7267 39.6755 14.9 40.3622 14.9ZM47.3133 16V6H48.7133V7.38C49.0666 6.87333 49.5266 6.47 50.0933 6.17C50.6599 5.87 51.2766 5.72 51.9433 5.72C52.3299 5.72 52.7033 5.77 53.0633 5.87L52.4933 7.26C52.2133 7.17333 51.9399 7.13 51.6733 7.13C51.1333 7.13 50.6366 7.26333 50.1833 7.53C49.7366 7.79667 49.3799 8.15333 49.1133 8.6C48.8466 9.04667 48.7133 9.54333 48.7133 10.09V16H47.3133ZM54.325 6H55.725V16H54.325V6ZM55.035 4.25C54.8083 4.25 54.615 4.17667 54.455 4.03C54.3017 3.87667 54.225 3.68667 54.225 3.46C54.225 3.23333 54.3017 3.04667 54.455 2.9C54.615 2.74667 54.8083 2.67 55.035 2.67C55.255 2.67 55.4417 2.74667 55.595 2.9C55.755 3.04667 55.835 3.23333 55.835 3.46C55.835 3.68667 55.7583 3.87667 55.605 4.03C55.4517 4.17667 55.2617 4.25 55.035 4.25Z" fill="black"/>
</svg>
