<svg width="260" height="260" viewBox="0 0 260 260" fill="none" xmlns="http://www.w3.org/2000/svg">
<rect width="260" height="260" fill="white"/>
<path d="M61.829 113.953V121H69.929V124.78H61.829V148H58.049V124.78H54.35V121H58.049V113.953C58.049 112.639 58.364 111.451 58.994 110.389C59.642 109.309 60.506 108.454 61.586 107.824C62.666 107.176 63.863 106.852 65.177 106.852C66.131 106.852 67.049 107.041 67.931 107.419C68.831 107.797 69.632 108.355 70.334 109.093L67.634 111.766C67.346 111.406 66.977 111.127 66.527 110.929C66.095 110.731 65.645 110.632 65.177 110.632C64.259 110.632 63.467 110.956 62.801 111.604C62.153 112.252 61.829 113.035 61.829 113.953ZM75.0134 148V121H78.7934V124.726C79.7474 123.358 80.9894 122.269 82.5194 121.459C84.0494 120.649 85.7144 120.244 87.5144 120.244C88.5584 120.244 89.5664 120.379 90.5384 120.649L88.9994 124.402C88.2434 124.168 87.5054 124.051 86.7854 124.051C85.3274 124.051 83.9864 124.411 82.7624 125.131C81.5564 125.851 80.5934 126.814 79.8734 128.02C79.1534 129.226 78.7934 130.567 78.7934 132.043V148H75.0134ZM104.401 148.702C101.917 148.702 99.6493 148.063 97.5973 146.785C95.5633 145.507 93.9343 143.797 92.7103 141.655C91.5043 139.495 90.9013 137.11 90.9013 134.5C90.9013 132.52 91.2523 130.675 91.9543 128.965C92.6563 127.237 93.6193 125.725 94.8433 124.429C96.0853 123.115 97.5253 122.089 99.1633 121.351C100.801 120.613 102.547 120.244 104.401 120.244C106.885 120.244 109.144 120.883 111.178 122.161C113.23 123.439 114.859 125.158 116.065 127.318C117.289 129.478 117.901 131.872 117.901 134.5C117.901 136.462 117.55 138.298 116.848 140.008C116.146 141.718 115.174 143.23 113.932 144.544C112.708 145.84 111.277 146.857 109.639 147.595C108.019 148.333 106.273 148.702 104.401 148.702ZM104.401 144.922C106.237 144.922 107.884 144.445 109.342 143.491C110.818 142.519 111.979 141.241 112.825 139.657C113.689 138.073 114.121 136.354 114.121 134.5C114.121 132.61 113.689 130.873 112.825 129.289C111.961 127.687 110.791 126.409 109.315 125.455C107.857 124.501 106.219 124.024 104.401 124.024C102.565 124.024 100.909 124.51 99.4333 125.482C97.9753 126.436 96.8143 127.705 95.9503 129.289C95.1043 130.873 94.6813 132.61 94.6813 134.5C94.6813 136.444 95.1223 138.208 96.0043 139.792C96.8863 141.358 98.0653 142.609 99.5413 143.545C101.017 144.463 102.637 144.922 104.401 144.922ZM141.489 141.223L144.864 143.059C143.64 144.769 142.083 146.137 140.193 147.163C138.321 148.189 136.287 148.702 134.091 148.702C131.607 148.702 129.339 148.063 127.287 146.785C125.253 145.507 123.624 143.797 122.4 141.655C121.194 139.495 120.591 137.11 120.591 134.5C120.591 132.52 120.942 130.675 121.644 128.965C122.346 127.237 123.309 125.725 124.533 124.429C125.775 123.115 127.215 122.089 128.853 121.351C130.491 120.613 132.237 120.244 134.091 120.244C136.287 120.244 138.321 120.757 140.193 121.783C142.083 122.809 143.64 124.186 144.864 125.914L141.489 127.723C140.553 126.535 139.428 125.626 138.114 124.996C136.8 124.348 135.459 124.024 134.091 124.024C132.273 124.024 130.626 124.51 129.15 125.482C127.674 126.436 126.504 127.705 125.64 129.289C124.794 130.873 124.371 132.61 124.371 134.5C124.371 136.39 124.803 138.127 125.667 139.711C126.549 141.295 127.728 142.564 129.204 143.518C130.68 144.454 132.309 144.922 134.091 144.922C135.567 144.922 136.953 144.58 138.249 143.896C139.545 143.212 140.625 142.321 141.489 141.223ZM171.563 121H175.343V148H171.563L171.428 142.978C170.546 144.688 169.313 146.074 167.729 147.136C166.145 148.18 164.255 148.702 162.059 148.702C160.079 148.702 158.225 148.333 156.497 147.595C154.769 146.839 153.248 145.804 151.934 144.49C150.62 143.176 149.594 141.655 148.856 139.927C148.118 138.199 147.749 136.345 147.749 134.365C147.749 132.421 148.109 130.594 148.829 128.884C149.567 127.174 150.575 125.671 151.853 124.375C153.149 123.079 154.643 122.071 156.335 121.351C158.045 120.613 159.872 120.244 161.816 120.244C164.066 120.244 166.028 120.784 167.702 121.864C169.376 122.926 170.708 124.321 171.698 126.049L171.563 121ZM161.978 145.03C163.904 145.03 165.56 144.562 166.946 143.626C168.332 142.672 169.394 141.394 170.132 139.792C170.888 138.19 171.266 136.426 171.266 134.5C171.266 132.52 170.888 130.738 170.132 129.154C169.376 127.552 168.305 126.283 166.919 125.347C165.533 124.411 163.886 123.943 161.978 123.943C160.07 123.943 158.324 124.42 156.74 125.374C155.174 126.31 153.923 127.579 152.987 129.181C152.069 130.783 151.61 132.556 151.61 134.5C151.61 136.462 152.087 138.244 153.041 139.846C153.995 141.43 155.255 142.69 156.821 143.626C158.405 144.562 160.124 145.03 161.978 145.03ZM180.746 148V121H184.526V124.726C185.48 123.358 186.722 122.269 188.252 121.459C189.782 120.649 191.447 120.244 193.247 120.244C194.291 120.244 195.299 120.379 196.271 120.649L194.732 124.402C193.976 124.168 193.238 124.051 192.518 124.051C191.06 124.051 189.719 124.411 188.495 125.131C187.289 125.851 186.326 126.814 185.606 128.02C184.886 129.226 184.526 130.567 184.526 132.043V148H180.746ZM199.678 121H203.458V148H199.678V121ZM201.595 116.275C200.983 116.275 200.461 116.077 200.029 115.681C199.615 115.267 199.408 114.754 199.408 114.142C199.408 113.53 199.615 113.026 200.029 112.63C200.461 112.216 200.983 112.009 201.595 112.009C202.189 112.009 202.693 112.216 203.107 112.63C203.539 113.026 203.755 113.53 203.755 114.142C203.755 114.754 203.548 115.267 203.134 115.681C202.72 116.077 202.207 116.275 201.595 116.275Z" fill="#1D1D1F"/>
</svg>
